<svg width="57" height="57" viewBox="0 0 57 57" fill="none" xmlns="http://www.w3.org/2000/svg">
<path d="M11.8822 52.25H45.1322C47.7518 52.25 49.8822 50.1196 49.8822 47.5V26.125C49.8825 25.8131 49.8212 25.5042 49.7018 25.216C49.5824 24.9279 49.4072 24.6661 49.1863 24.4459L30.1863 5.44588C29.966 5.22513 29.7042 5.05001 29.4161 4.93052C29.128 4.81103 28.8191 4.74953 28.5072 4.74953C28.1953 4.74953 27.8864 4.81103 27.5983 4.93052C27.3102 5.05001 27.0484 5.22513 26.8281 5.44588L7.82808 24.4459C7.60721 24.6661 7.43203 24.9279 7.31261 25.216C7.19319 25.5042 7.13188 25.8131 7.1322 26.125V47.5C7.1322 50.1196 9.26258 52.25 11.8822 52.25V52.25ZM23.7572 47.5V35.625H33.2572V47.5H23.7572ZM11.8822 27.1083L28.5072 10.4833L45.1322 27.1083L45.1346 47.5H38.0072V35.625C38.0072 33.0054 35.8768 30.875 33.2572 30.875H23.7572C21.1376 30.875 19.0072 33.0054 19.0072 35.625V47.5H11.8822V27.1083Z" fill="#1D1D1D"/>
</svg>
