<svg width="146" height="231" viewBox="0 0 146 231" fill="none" xmlns="http://www.w3.org/2000/svg">
<path d="M7.96937 57.033C7.8984 57.837 7.99241 58.6471 8.24561 59.4135C8.49881 60.1798 8.90587 60.8864 9.44185 61.4899C9.97782 62.0934 10.6314 62.5811 11.3625 62.923C12.0937 63.2649 12.8869 63.4539 13.6937 63.4784L34.2675 64.4602C37.7244 64.6251 40.5872 61.9562 41.2127 58.5493C44.2194 42.2804 56.0271 30.8923 76.0551 31.8481C93.1579 32.6642 108.425 41.9637 107.443 62.5515C106.687 78.3947 96.9901 85.2264 81.7376 95.6084C64.3603 107.011 50.3844 120.624 50.2327 143.791L50.0449 149.197C49.9239 152.614 52.5782 155.49 55.9931 155.653L76.217 156.618C79.674 156.783 82.5927 154.116 82.757 150.673L82.8826 148.042C83.7362 130.156 90.8019 125.247 109.843 112.198C125.594 101.362 142.036 89.2837 143.321 62.3558C145.119 24.6652 114.162 4.93792 79.3123 3.27488C47.7099 1.76679 12.367 14.8513 7.98336 57.0337L7.96937 57.033ZM39.9605 202.666C39.326 215.962 49.4659 226.293 64.0495 226.989C79.235 227.714 90.1587 218.387 90.7931 205.092C91.451 191.306 81.457 181.15 66.2576 180.424C51.702 179.73 40.6183 188.88 39.9605 202.666Z" fill="#BBBBBB" fill-opacity="0.34"/>
</svg>
