<svg width="49" height="49" viewBox="0 0 49 49" fill="none" xmlns="http://www.w3.org/2000/svg">
<g clip-path="url(#clip0)">
<path d="M46.0677 45.2331C46.514 44.5333 50.1324 39.3746 48.1632 38.5975C44.9744 38.5408 41.8606 38.7261 38.9298 37.181C35.0633 35.146 32.1907 32.3683 29.3173 29.0991C28.5418 28.2186 28.5578 27.1024 29.3173 26.2181C33.905 20.5272 39.3623 16.5069 45.103 11.6253C47.6885 9.32838 43.3811 5.30731 40.2221 5.01944C38.7866 5.01944 37.3518 5.88077 35.914 6.45499C30.746 9.61395 27.587 14.4963 23.6257 18.7203C23.1824 19.2593 22.5507 19.4048 21.9459 19.2907C21.3403 19.1781 20.7615 18.806 20.4261 18.3092C18.2142 15.0239 16.1999 11.5165 14.8141 7.7933C14.0722 5.80497 13.3778 3.79061 12.8786 1.72495C12.1375 -1.36817 11.0135 0.316204 9.72269 1.98297C6.19469 6.53538 4.85561 10.0282 7.9541 15.4273C10.2364 19.4055 12.6925 23.2076 15.5116 26.826C16.0368 27.5013 16.4089 28.5012 15.8293 29.2943C14.5523 31.0438 12.9781 33.2312 11.1498 35.2348C10.5431 35.9046 9.90458 36.5449 9.23652 37.1535C6.62114 40.0529 1.1653 39.7658 0.303206 42.3513C-0.843701 44.6482 3.17507 48.6662 7.04453 48.8048C7.75839 48.7457 8.46138 48.593 9.13546 48.3508C13.9053 46.6694 17.859 40.9518 20.6505 37.3127C21.4023 36.3304 22.8784 35.829 23.8485 36.9001C27.5319 40.9648 31.7995 46.5018 37.3372 48.0453C40.8806 49.0322 43.989 48.5031 46.0638 45.2308" fill="#8F0000"/>
<path d="M4.53176 42.3467C5.39386 39.7612 10.8497 40.0498 13.4651 37.1489C14.1304 36.5456 14.7666 35.8994 15.3784 35.2302C17.2052 33.2266 18.7808 31.0392 20.0563 29.2898C20.6374 28.4973 20.2638 27.4967 19.7394 26.8214C16.9219 23.203 14.4619 19.4017 12.1811 15.4228C9.31156 10.4225 10.2487 7.0583 13.2048 2.97216C13.0886 2.55662 12.9788 2.1393 12.8755 1.72036C12.1344 -1.37276 11.0105 0.311611 9.71964 1.97838C6.19164 6.53078 4.85256 10.0236 7.95104 15.4228C10.2334 19.4009 12.6895 23.203 15.5085 26.8214C16.0337 27.4967 16.4058 28.4966 15.8263 29.2898C14.5492 31.0392 12.9751 33.2266 11.1468 35.2302C10.54 35.9 9.90153 36.5403 9.23347 37.1489C6.61809 40.0483 1.16225 39.7612 0.300154 42.3467C-0.846752 44.6436 3.17201 48.6616 7.04148 48.8002C7.74899 48.7403 8.44583 48.5895 9.11479 48.3515C6.07909 47.2184 3.59847 44.2118 4.53176 42.3467Z" fill="#8F0000"/>
</g>
<defs>
<clipPath id="clip0">
<rect width="49" height="49" fill="white"/>
</clipPath>
</defs>
</svg>
