<svg width="238" height="84" viewBox="0 0 238 84" fill="none" xmlns="http://www.w3.org/2000/svg">
<path d="M21.312 55L15.552 46.9C14.904 46.972 14.232 47.008 13.536 47.008H6.768V55H4.104V29.8H13.536C16.752 29.8 19.272 30.568 21.096 32.104C22.92 33.64 23.832 35.752 23.832 38.44C23.832 40.408 23.328 42.076 22.32 43.444C21.336 44.788 19.92 45.76 18.072 46.36L24.228 55H21.312ZM13.464 44.74C15.96 44.74 17.868 44.188 19.188 43.084C20.508 41.98 21.168 40.432 21.168 38.44C21.168 36.4 20.508 34.84 19.188 33.76C17.868 32.656 15.96 32.104 13.464 32.104H6.768V44.74H13.464ZM36.0278 35.92C38.4998 35.92 40.3958 36.544 41.7158 37.792C43.0358 39.016 43.6958 40.84 43.6958 43.264V55H41.2478V52.048C40.6718 53.032 39.8198 53.8 38.6918 54.352C37.5878 54.904 36.2678 55.18 34.7318 55.18C32.6198 55.18 30.9398 54.676 29.6918 53.668C28.4438 52.66 27.8198 51.328 27.8198 49.672C27.8198 48.064 28.3958 46.768 29.5478 45.784C30.7238 44.8 32.5838 44.308 35.1278 44.308H41.1398V43.156C41.1398 41.524 40.6838 40.288 39.7718 39.448C38.8598 38.584 37.5278 38.152 35.7758 38.152C34.5758 38.152 33.4238 38.356 32.3198 38.764C31.2158 39.148 30.2678 39.688 29.4758 40.384L28.3238 38.476C29.2838 37.66 30.4358 37.036 31.7798 36.604C33.1238 36.148 34.5398 35.92 36.0278 35.92ZM35.1278 53.164C36.5678 53.164 37.8038 52.84 38.8358 52.192C39.8678 51.52 40.6358 50.56 41.1398 49.312V46.216H35.1998C31.9598 46.216 30.3398 47.344 30.3398 49.6C30.3398 50.704 30.7598 51.58 31.5998 52.228C32.4398 52.852 33.6158 53.164 35.1278 53.164ZM60.2862 35.92C62.6622 35.92 64.5462 36.616 65.9382 38.008C67.3542 39.376 68.0622 41.38 68.0622 44.02V55H65.5062V44.272C65.5062 42.304 65.0142 40.804 64.0302 39.772C63.0462 38.74 61.6422 38.224 59.8182 38.224C57.7782 38.224 56.1582 38.836 54.9582 40.06C53.7822 41.26 53.1942 42.928 53.1942 45.064V55H50.6382V36.064H53.0862V39.556C53.7822 38.404 54.7422 37.516 55.9662 36.892C57.2142 36.244 58.6542 35.92 60.2862 35.92ZM92.3518 28.288V55H89.9038V51.256C89.1358 52.528 88.1158 53.5 86.8438 54.172C85.5958 54.844 84.1798 55.18 82.5958 55.18C80.8198 55.18 79.2118 54.772 77.7718 53.956C76.3318 53.14 75.2038 52 74.3878 50.536C73.5718 49.072 73.1638 47.404 73.1638 45.532C73.1638 43.66 73.5718 41.992 74.3878 40.528C75.2038 39.064 76.3318 37.936 77.7718 37.144C79.2118 36.328 80.8198 35.92 82.5958 35.92C84.1318 35.92 85.5118 36.244 86.7358 36.892C87.9838 37.516 89.0038 38.44 89.7958 39.664V28.288H92.3518ZM82.8118 52.912C84.1318 52.912 85.3198 52.612 86.3758 52.012C87.4558 51.388 88.2958 50.512 88.8958 49.384C89.5198 48.256 89.8318 46.972 89.8318 45.532C89.8318 44.092 89.5198 42.808 88.8958 41.68C88.2958 40.552 87.4558 39.688 86.3758 39.088C85.3198 38.464 84.1318 38.152 82.8118 38.152C81.4678 38.152 80.2558 38.464 79.1758 39.088C78.1198 39.688 77.2798 40.552 76.6558 41.68C76.0558 42.808 75.7558 44.092 75.7558 45.532C75.7558 46.972 76.0558 48.256 76.6558 49.384C77.2798 50.512 78.1198 51.388 79.1758 52.012C80.2558 52.612 81.4678 52.912 82.8118 52.912ZM107.21 55.18C105.386 55.18 103.742 54.772 102.278 53.956C100.814 53.116 99.6623 51.964 98.8223 50.5C97.9823 49.036 97.5623 47.38 97.5623 45.532C97.5623 43.684 97.9823 42.028 98.8223 40.564C99.6623 39.1 100.814 37.96 102.278 37.144C103.742 36.328 105.386 35.92 107.21 35.92C109.034 35.92 110.678 36.328 112.142 37.144C113.606 37.96 114.746 39.1 115.562 40.564C116.402 42.028 116.822 43.684 116.822 45.532C116.822 47.38 116.402 49.036 115.562 50.5C114.746 51.964 113.606 53.116 112.142 53.956C110.678 54.772 109.034 55.18 107.21 55.18ZM107.21 52.912C108.554 52.912 109.754 52.612 110.81 52.012C111.89 51.388 112.73 50.512 113.33 49.384C113.93 48.256 114.23 46.972 114.23 45.532C114.23 44.092 113.93 42.808 113.33 41.68C112.73 40.552 111.89 39.688 110.81 39.088C109.754 38.464 108.554 38.152 107.21 38.152C105.866 38.152 104.654 38.464 103.574 39.088C102.518 39.688 101.678 40.552 101.054 41.68C100.454 42.808 100.154 44.092 100.154 45.532C100.154 46.972 100.454 48.256 101.054 49.384C101.678 50.512 102.518 51.388 103.574 52.012C104.654 52.612 105.866 52.912 107.21 52.912ZM145.657 35.92C148.033 35.92 149.893 36.604 151.237 37.972C152.605 39.34 153.289 41.356 153.289 44.02V55H150.733V44.272C150.733 42.304 150.253 40.804 149.293 39.772C148.357 38.74 147.025 38.224 145.297 38.224C143.329 38.224 141.781 38.836 140.653 40.06C139.525 41.26 138.961 42.928 138.961 45.064V55H136.405V44.272C136.405 42.304 135.925 40.804 134.965 39.772C134.029 38.74 132.685 38.224 130.933 38.224C128.989 38.224 127.441 38.836 126.289 40.06C125.161 41.26 124.597 42.928 124.597 45.064V55H122.041V36.064H124.489V39.52C125.161 38.368 126.097 37.48 127.297 36.856C128.497 36.232 129.877 35.92 131.437 35.92C133.021 35.92 134.389 36.256 135.541 36.928C136.717 37.6 137.593 38.596 138.169 39.916C138.865 38.668 139.861 37.696 141.157 37C142.477 36.28 143.977 35.92 145.657 35.92Z" fill="#1D1D1D"/>
<path d="M171.4 62.24C169.192 62.24 167.192 61.696 165.4 60.608C163.64 59.52 162.248 57.952 161.224 55.904C160.2 53.824 159.688 51.376 159.688 48.56C159.688 43.696 160.728 39.2 162.808 35.072C164.888 30.912 167.96 27.584 172.024 25.088C176.088 22.56 180.968 21.296 186.664 21.296C188.136 21.296 189.704 21.408 191.368 21.632C193.064 21.856 194.6 22.192 195.976 22.64C196.872 22.896 197.32 23.536 197.32 24.56C197.32 25.392 197 26.176 196.36 26.912C195.752 27.648 195.032 28.016 194.2 28.016C193.944 28.016 193.752 28 193.624 27.968C191.96 27.584 190.536 27.312 189.352 27.152C188.168 26.96 186.92 26.864 185.608 26.864C181.544 26.864 178.088 27.856 175.24 29.84C172.392 31.792 170.264 34.384 168.856 37.616C167.448 40.848 166.744 44.336 166.744 48.08C166.744 50.8 167.272 52.912 168.328 54.416C169.416 55.888 170.824 56.624 172.552 56.624C174.504 56.624 176.216 55.824 177.688 54.224C179.16 52.624 180.504 50.032 181.72 46.448C182.936 42.864 184.136 38 185.32 31.856C185.512 30.96 185.896 30.352 186.472 30.032C187.048 29.712 187.816 29.552 188.776 29.552C191.048 29.552 192.184 30.288 192.184 31.76C192.184 32.016 192.136 32.336 192.04 32.72C191.208 35.824 190.44 39.264 189.736 43.04C189.064 46.784 188.728 49.632 188.728 51.584C188.728 53.312 188.984 54.576 189.496 55.376C190.008 56.144 190.792 56.528 191.848 56.528C192.872 56.528 193.848 56.192 194.776 55.52C195.704 54.816 196.872 53.632 198.28 51.968C198.664 51.52 199.096 51.296 199.576 51.296C199.992 51.296 200.312 51.488 200.536 51.872C200.792 52.256 200.92 52.784 200.92 53.456C200.92 54.704 200.616 55.696 200.008 56.432C198.44 58.32 196.904 59.76 195.4 60.752C193.896 61.744 192.056 62.24 189.88 62.24C187.64 62.24 185.832 61.6 184.456 60.32C183.08 59.008 182.216 57.168 181.864 54.8C179.496 59.76 176.008 62.24 171.4 62.24ZM236.014 66.608C236.334 66.608 236.574 66.768 236.734 67.088C236.926 67.44 237.022 67.888 237.022 68.432C237.022 69.456 236.75 70.464 236.206 71.456C235.118 73.44 233.678 74.96 231.886 76.016C230.126 77.104 228.318 77.648 226.462 77.648C224.574 77.648 222.99 77.344 221.71 76.736C220.43 76.16 219.342 75.28 218.446 74.096C217.55 72.944 216.686 71.408 215.854 69.488C214.99 67.504 214.27 66.016 213.694 65.024C213.15 64.064 212.574 63.36 211.966 62.912C211.358 62.464 210.574 62.144 209.614 61.952C206.062 61.248 203.198 59.488 201.022 56.672C198.878 53.856 197.806 50.224 197.806 45.776C197.806 40.912 198.686 36.624 200.446 32.912C202.238 29.2 204.654 26.336 207.694 24.32C210.766 22.304 214.158 21.296 217.87 21.296C220.718 21.296 223.278 21.936 225.55 23.216C227.854 24.496 229.678 26.384 231.022 28.88C232.366 31.344 233.038 34.304 233.038 37.76C233.038 41.792 232.43 45.424 231.214 48.656C229.998 51.888 228.318 54.576 226.174 56.72C224.03 58.864 221.566 60.384 218.782 61.28C219.582 61.728 220.27 62.384 220.846 63.248C221.454 64.112 222.094 65.36 222.766 66.992C223.502 68.784 224.286 70.064 225.118 70.832C225.982 71.6 227.038 71.984 228.286 71.984C229.342 71.984 230.366 71.616 231.358 70.88C232.35 70.176 233.47 69.008 234.718 67.376C235.102 66.864 235.534 66.608 236.014 66.608ZM213.454 56.576C215.95 56.576 218.142 55.808 220.03 54.272C221.95 52.736 223.422 50.608 224.446 47.888C225.47 45.136 225.982 42.032 225.982 38.576C225.982 34.768 225.182 31.888 223.582 29.936C221.982 27.952 219.918 26.96 217.39 26.96C214.958 26.96 212.782 27.744 210.862 29.312C208.974 30.848 207.502 32.976 206.446 35.696C205.39 38.416 204.862 41.504 204.862 44.96C204.862 48.768 205.662 51.664 207.262 53.648C208.862 55.6 210.926 56.576 213.454 56.576Z" fill="#1D1D1D"/>
</svg>
