<svg width="148" height="49" viewBox="0 0 148 49" fill="none" xmlns="http://www.w3.org/2000/svg">
<path d="M14.208 35L10.368 29.6C9.936 29.648 9.488 29.672 9.024 29.672H4.512V35H2.736V18.2H9.024C11.168 18.2 12.848 18.712 14.064 19.736C15.28 20.76 15.888 22.168 15.888 23.96C15.888 25.272 15.552 26.384 14.88 27.296C14.224 28.192 13.28 28.84 12.048 29.24L16.152 35H14.208ZM8.976 28.16C10.64 28.16 11.912 27.792 12.792 27.056C13.672 26.32 14.112 25.288 14.112 23.96C14.112 22.6 13.672 21.56 12.792 20.84C11.912 20.104 10.64 19.736 8.976 19.736H4.512V28.16H8.976ZM24.0186 22.28C25.6666 22.28 26.9306 22.696 27.8106 23.528C28.6906 24.344 29.1306 25.56 29.1306 27.176V35H27.4986V33.032C27.1146 33.688 26.5466 34.2 25.7946 34.568C25.0586 34.936 24.1786 35.12 23.1546 35.12C21.7466 35.12 20.6266 34.784 19.7946 34.112C18.9626 33.44 18.5466 32.552 18.5466 31.448C18.5466 30.376 18.9306 29.512 19.6986 28.856C20.4826 28.2 21.7226 27.872 23.4186 27.872H27.4266V27.104C27.4266 26.016 27.1226 25.192 26.5146 24.632C25.9066 24.056 25.0186 23.768 23.8506 23.768C23.0506 23.768 22.2826 23.904 21.5466 24.176C20.8106 24.432 20.1786 24.792 19.6506 25.256L18.8826 23.984C19.5226 23.44 20.2906 23.024 21.1866 22.736C22.0826 22.432 23.0266 22.28 24.0186 22.28ZM23.4186 33.776C24.3786 33.776 25.2026 33.56 25.8906 33.128C26.5786 32.68 27.0906 32.04 27.4266 31.208V29.144H23.4666C21.3066 29.144 20.2266 29.896 20.2266 31.4C20.2266 32.136 20.5066 32.72 21.0666 33.152C21.6266 33.568 22.4106 33.776 23.4186 33.776ZM40.1908 22.28C41.7748 22.28 43.0308 22.744 43.9588 23.672C44.9028 24.584 45.3748 25.92 45.3748 27.68V35H43.6708V27.848C43.6708 26.536 43.3428 25.536 42.6868 24.848C42.0308 24.16 41.0948 23.816 39.8788 23.816C38.5188 23.816 37.4388 24.224 36.6388 25.04C35.8548 25.84 35.4628 26.952 35.4628 28.376V35H33.7588V22.376H35.3908V24.704C35.8548 23.936 36.4948 23.344 37.3108 22.928C38.1428 22.496 39.1028 22.28 40.1908 22.28ZM61.5679 17.192V35H59.9359V32.504C59.4239 33.352 58.7439 34 57.8959 34.448C57.0639 34.896 56.1199 35.12 55.0639 35.12C53.8799 35.12 52.8079 34.848 51.8479 34.304C50.8879 33.76 50.1359 33 49.5919 32.024C49.0479 31.048 48.7759 29.936 48.7759 28.688C48.7759 27.44 49.0479 26.328 49.5919 25.352C50.1359 24.376 50.8879 23.624 51.8479 23.096C52.8079 22.552 53.8799 22.28 55.0639 22.28C56.0879 22.28 57.0079 22.496 57.8239 22.928C58.6559 23.344 59.3359 23.96 59.8639 24.776V17.192H61.5679ZM55.2079 33.608C56.0879 33.608 56.8799 33.408 57.5839 33.008C58.3039 32.592 58.8639 32.008 59.2639 31.256C59.6799 30.504 59.8879 29.648 59.8879 28.688C59.8879 27.728 59.6799 26.872 59.2639 26.12C58.8639 25.368 58.3039 24.792 57.5839 24.392C56.8799 23.976 56.0879 23.768 55.2079 23.768C54.3119 23.768 53.5039 23.976 52.7839 24.392C52.0799 24.792 51.5199 25.368 51.1039 26.12C50.7039 26.872 50.5039 27.728 50.5039 28.688C50.5039 29.648 50.7039 30.504 51.1039 31.256C51.5199 32.008 52.0799 32.592 52.7839 33.008C53.5039 33.408 54.3119 33.608 55.2079 33.608ZM71.4735 35.12C70.2575 35.12 69.1615 34.848 68.1855 34.304C67.2095 33.744 66.4415 32.976 65.8815 32C65.3215 31.024 65.0415 29.92 65.0415 28.688C65.0415 27.456 65.3215 26.352 65.8815 25.376C66.4415 24.4 67.2095 23.64 68.1855 23.096C69.1615 22.552 70.2575 22.28 71.4735 22.28C72.6895 22.28 73.7855 22.552 74.7615 23.096C75.7375 23.64 76.4975 24.4 77.0415 25.376C77.6015 26.352 77.8815 27.456 77.8815 28.688C77.8815 29.92 77.6015 31.024 77.0415 32C76.4975 32.976 75.7375 33.744 74.7615 34.304C73.7855 34.848 72.6895 35.12 71.4735 35.12ZM71.4735 33.608C72.3695 33.608 73.1695 33.408 73.8735 33.008C74.5935 32.592 75.1535 32.008 75.5535 31.256C75.9535 30.504 76.1535 29.648 76.1535 28.688C76.1535 27.728 75.9535 26.872 75.5535 26.12C75.1535 25.368 74.5935 24.792 73.8735 24.392C73.1695 23.976 72.3695 23.768 71.4735 23.768C70.5775 23.768 69.7695 23.976 69.0495 24.392C68.3455 24.792 67.7855 25.368 67.3695 26.12C66.9695 26.872 66.7695 27.728 66.7695 28.688C66.7695 29.648 66.9695 30.504 67.3695 31.256C67.7855 32.008 68.3455 32.592 69.0495 33.008C69.7695 33.408 70.5775 33.608 71.4735 33.608ZM97.1044 22.28C98.6884 22.28 99.9284 22.736 100.824 23.648C101.736 24.56 102.192 25.904 102.192 27.68V35H100.488V27.848C100.488 26.536 100.168 25.536 99.5284 24.848C98.9044 24.16 98.0164 23.816 96.8644 23.816C95.5524 23.816 94.5204 24.224 93.7684 25.04C93.0164 25.84 92.6404 26.952 92.6404 28.376V35H90.9364V27.848C90.9364 26.536 90.6164 25.536 89.9764 24.848C89.3524 24.16 88.4564 23.816 87.2884 23.816C85.9924 23.816 84.9604 24.224 84.1924 25.04C83.4404 25.84 83.0644 26.952 83.0644 28.376V35H81.3604V22.376H82.9924V24.68C83.4404 23.912 84.0644 23.32 84.8644 22.904C85.6644 22.488 86.5844 22.28 87.6244 22.28C88.6804 22.28 89.5924 22.504 90.3604 22.952C91.1444 23.4 91.7284 24.064 92.1124 24.944C92.5764 24.112 93.2404 23.464 94.1044 23C94.9844 22.52 95.9844 22.28 97.1044 22.28Z" fill="white"/>
<path d="M112.2 38.12C111.096 38.12 110.096 37.848 109.2 37.304C108.32 36.76 107.624 35.976 107.112 34.952C106.6 33.912 106.344 32.688 106.344 31.28C106.344 28.848 106.864 26.6 107.904 24.536C108.944 22.456 110.48 20.792 112.512 19.544C114.544 18.28 116.984 17.648 119.832 17.648C120.568 17.648 121.352 17.704 122.184 17.816C123.032 17.928 123.8 18.096 124.488 18.32C124.936 18.448 125.16 18.768 125.16 19.28C125.16 19.696 125 20.088 124.68 20.456C124.376 20.824 124.016 21.008 123.6 21.008C123.472 21.008 123.376 21 123.312 20.984C122.48 20.792 121.768 20.656 121.176 20.576C120.584 20.48 119.96 20.432 119.304 20.432C117.272 20.432 115.544 20.928 114.12 21.92C112.696 22.896 111.632 24.192 110.928 25.808C110.224 27.424 109.872 29.168 109.872 31.04C109.872 32.4 110.136 33.456 110.664 34.208C111.208 34.944 111.912 35.312 112.776 35.312C113.752 35.312 114.608 34.912 115.344 34.112C116.08 33.312 116.752 32.016 117.36 30.224C117.968 28.432 118.568 26 119.16 22.928C119.256 22.48 119.448 22.176 119.736 22.016C120.024 21.856 120.408 21.776 120.888 21.776C122.024 21.776 122.592 22.144 122.592 22.88C122.592 23.008 122.568 23.168 122.52 23.36C122.104 24.912 121.72 26.632 121.368 28.52C121.032 30.392 120.864 31.816 120.864 32.792C120.864 33.656 120.992 34.288 121.248 34.688C121.504 35.072 121.896 35.264 122.424 35.264C122.936 35.264 123.424 35.096 123.888 34.76C124.352 34.408 124.936 33.816 125.64 32.984C125.832 32.76 126.048 32.648 126.288 32.648C126.496 32.648 126.656 32.744 126.768 32.936C126.896 33.128 126.96 33.392 126.96 33.728C126.96 34.352 126.808 34.848 126.504 35.216C125.72 36.16 124.952 36.88 124.2 37.376C123.448 37.872 122.528 38.12 121.44 38.12C120.32 38.12 119.416 37.8 118.728 37.16C118.04 36.504 117.608 35.584 117.432 34.4C116.248 36.88 114.504 38.12 112.2 38.12ZM144.507 40.304C144.667 40.304 144.787 40.384 144.867 40.544C144.963 40.72 145.011 40.944 145.011 41.216C145.011 41.728 144.875 42.232 144.603 42.728C144.059 43.72 143.339 44.48 142.443 45.008C141.563 45.552 140.659 45.824 139.731 45.824C138.787 45.824 137.995 45.672 137.355 45.368C136.715 45.08 136.171 44.64 135.723 44.048C135.275 43.472 134.843 42.704 134.427 41.744C133.995 40.752 133.635 40.008 133.347 39.512C133.075 39.032 132.787 38.68 132.483 38.456C132.179 38.232 131.787 38.072 131.307 37.976C129.531 37.624 128.099 36.744 127.011 35.336C125.939 33.928 125.403 32.112 125.403 29.888C125.403 27.456 125.843 25.312 126.723 23.456C127.619 21.6 128.827 20.168 130.347 19.16C131.883 18.152 133.579 17.648 135.435 17.648C136.859 17.648 138.139 17.968 139.275 18.608C140.427 19.248 141.339 20.192 142.011 21.44C142.683 22.672 143.019 24.152 143.019 25.88C143.019 27.896 142.715 29.712 142.107 31.328C141.499 32.944 140.659 34.288 139.587 35.36C138.515 36.432 137.283 37.192 135.891 37.64C136.291 37.864 136.635 38.192 136.923 38.624C137.227 39.056 137.547 39.68 137.883 40.496C138.251 41.392 138.643 42.032 139.059 42.416C139.491 42.8 140.019 42.992 140.643 42.992C141.171 42.992 141.683 42.808 142.179 42.44C142.675 42.088 143.235 41.504 143.859 40.688C144.051 40.432 144.267 40.304 144.507 40.304ZM133.227 35.288C134.475 35.288 135.571 34.904 136.515 34.136C137.475 33.368 138.211 32.304 138.723 30.944C139.235 29.568 139.491 28.016 139.491 26.288C139.491 24.384 139.091 22.944 138.291 21.968C137.491 20.976 136.459 20.48 135.195 20.48C133.979 20.48 132.891 20.872 131.931 21.656C130.987 22.424 130.251 23.488 129.723 24.848C129.195 26.208 128.931 27.752 128.931 29.48C128.931 31.384 129.331 32.832 130.131 33.824C130.931 34.8 131.963 35.288 133.227 35.288Z" fill="white"/>
</svg>
