<svg width="127" height="127" viewBox="0 0 127 127" fill="none" xmlns="http://www.w3.org/2000/svg">
<circle cx="63.5" cy="63.5" r="63.5" fill="url(#paint0_linear)"/>
<path d="M39.4391 83.24C37.2311 83.24 35.2311 82.696 33.4391 81.608C31.6791 80.52 30.2871 78.952 29.2631 76.904C28.2391 74.824 27.7271 72.376 27.7271 69.56C27.7271 64.696 28.7671 60.2 30.8471 56.072C32.9271 51.912 35.9991 48.584 40.0631 46.088C44.1271 43.56 49.0071 42.296 54.7031 42.296C56.1751 42.296 57.7431 42.408 59.4071 42.632C61.1031 42.856 62.6391 43.192 64.0151 43.64C64.9111 43.896 65.3591 44.536 65.3591 45.56C65.3591 46.392 65.0391 47.176 64.3991 47.912C63.7911 48.648 63.0711 49.016 62.2391 49.016C61.9831 49.016 61.7911 49 61.6631 48.968C59.9991 48.584 58.5751 48.312 57.3911 48.152C56.2071 47.96 54.9591 47.864 53.6471 47.864C49.5831 47.864 46.1271 48.856 43.2791 50.84C40.4311 52.792 38.3031 55.384 36.8951 58.616C35.4871 61.848 34.7831 65.336 34.7831 69.08C34.7831 71.8 35.3111 73.912 36.3671 75.416C37.4551 76.888 38.8631 77.624 40.5911 77.624C42.5431 77.624 44.2551 76.824 45.7271 75.224C47.1991 73.624 48.5431 71.032 49.7591 67.448C50.9751 63.864 52.1751 59 53.3591 52.856C53.5511 51.96 53.9351 51.352 54.5111 51.032C55.0871 50.712 55.8551 50.552 56.8151 50.552C59.0871 50.552 60.2231 51.288 60.2231 52.76C60.2231 53.016 60.1751 53.336 60.0791 53.72C59.2471 56.824 58.4791 60.264 57.7751 64.04C57.1031 67.784 56.7671 70.632 56.7671 72.584C56.7671 74.312 57.0231 75.576 57.5351 76.376C58.0471 77.144 58.8311 77.528 59.8871 77.528C60.9111 77.528 61.8871 77.192 62.8151 76.52C63.7431 75.816 64.9111 74.632 66.3191 72.968C66.7031 72.52 67.1351 72.296 67.6151 72.296C68.0311 72.296 68.3511 72.488 68.5751 72.872C68.8311 73.256 68.9591 73.784 68.9591 74.456C68.9591 75.704 68.6551 76.696 68.0471 77.432C66.4791 79.32 64.9431 80.76 63.4391 81.752C61.9351 82.744 60.0951 83.24 57.9191 83.24C55.6791 83.24 53.8711 82.6 52.4951 81.32C51.1191 80.008 50.2551 78.168 49.9031 75.8C47.5351 80.76 44.0471 83.24 39.4391 83.24ZM104.053 87.608C104.373 87.608 104.613 87.768 104.773 88.088C104.965 88.44 105.061 88.888 105.061 89.432C105.061 90.456 104.789 91.464 104.245 92.456C103.157 94.44 101.717 95.96 99.9254 97.016C98.1654 98.104 96.3574 98.648 94.5014 98.648C92.6134 98.648 91.0294 98.344 89.7494 97.736C88.4694 97.16 87.3814 96.28 86.4854 95.096C85.5894 93.944 84.7254 92.408 83.8934 90.488C83.0294 88.504 82.3094 87.016 81.7334 86.024C81.1894 85.064 80.6134 84.36 80.0054 83.912C79.3974 83.464 78.6134 83.144 77.6534 82.952C74.1014 82.248 71.2374 80.488 69.0614 77.672C66.9174 74.856 65.8454 71.224 65.8454 66.776C65.8454 61.912 66.7254 57.624 68.4854 53.912C70.2774 50.2 72.6934 47.336 75.7334 45.32C78.8054 43.304 82.1974 42.296 85.9094 42.296C88.7574 42.296 91.3174 42.936 93.5894 44.216C95.8934 45.496 97.7174 47.384 99.0614 49.88C100.405 52.344 101.077 55.304 101.077 58.76C101.077 62.792 100.469 66.424 99.2534 69.656C98.0374 72.888 96.3574 75.576 94.2134 77.72C92.0694 79.864 89.6054 81.384 86.8214 82.28C87.6214 82.728 88.3094 83.384 88.8854 84.248C89.4934 85.112 90.1334 86.36 90.8054 87.992C91.5414 89.784 92.3254 91.064 93.1574 91.832C94.0214 92.6 95.0774 92.984 96.3254 92.984C97.3814 92.984 98.4054 92.616 99.3974 91.88C100.389 91.176 101.509 90.008 102.757 88.376C103.141 87.864 103.573 87.608 104.053 87.608ZM81.4934 77.576C83.9894 77.576 86.1814 76.808 88.0694 75.272C89.9894 73.736 91.4614 71.608 92.4854 68.888C93.5094 66.136 94.0214 63.032 94.0214 59.576C94.0214 55.768 93.2214 52.888 91.6214 50.936C90.0214 48.952 87.9574 47.96 85.4294 47.96C82.9974 47.96 80.8214 48.744 78.9014 50.312C77.0134 51.848 75.5414 53.976 74.4854 56.696C73.4294 59.416 72.9014 62.504 72.9014 65.96C72.9014 69.768 73.7014 72.664 75.3014 74.648C76.9014 76.6 78.9654 77.576 81.4934 77.576Z" fill="white"/>
<defs>
<linearGradient id="paint0_linear" x1="143.5" y1="-19.5" x2="-10" y2="131.5" gradientUnits="userSpaceOnUse">
<stop stop-color="#480048"/>
<stop offset="1" stop-color="#C04848"/>
</linearGradient>
</defs>
</svg>
