<svg width="52" height="52" viewBox="0 0 52 52" fill="none" xmlns="http://www.w3.org/2000/svg">
<path d="M46.0963 4.12832C39.2413 10.0612 33.4417 15.7089 28.132 23.0774C25.7903 26.3274 23.1863 30.1527 21.4841 33.7643C20.5123 35.6793 18.7606 38.6718 18.1634 41.5488C14.8972 38.5101 11.3888 35.061 7.79916 32.3594C5.2406 30.4346 -2.12878 34.359 0.87097 36.6161C6.24728 40.6599 10.7185 45.6966 15.9477 49.9208C18.135 51.6856 22.9823 47.853 24.1215 46.2451C27.8606 40.9476 28.3717 34.4719 31.0968 28.6934C35.2576 19.8559 42.6367 12.5962 49.9224 6.29201C54.7495 1.78994 49.764 0.959568 46.1037 4.12832" fill="#37B34A"/>
</svg>
